<svg viewBox="60 174.5 145 144" version="1.1">
      <g
        stroke="none"
        stroke-width="1"
        fill="none"
        fill-rule="evenodd"
      >
        <path
          d="M119.368 300.368c3.814 0 9.217 -5.942 13.746 -17.718c5.213 -13.554 8.254 -32.244 8.254 -52.282c0 -20.04 -3.04 -38.729 -8.254 -52.283c-4.53 -11.776 -9.932 -17.717 -13.746 -17.717c-3.815 0 -9.218 5.941 -13.747 17.717c-5.213 13.554 -8.253 32.244 -8.253 52.283c0 20.038 3.04 38.728 8.253 52.282c4.53 11.776 9.932 17.718 13.747 17.718zm0 8c-16.569 0 -30 -34.922 -30 -78c0 -43.079 13.431 -78 30 -78c16.568 0 30 34.921 30 78c0 43.078 -13.432 78 -30 78z"
          fill="#c63030"
          fill-rule="nonzero"
          transform="translate(119.367532, 234.367532) rotate(45.000000) translate(-119.367532, -230.367532)"
        ></path>
        <g transform="translate(0, 312.000000)">
          <rect x="0" y="0" width="323" height="6" fill="#c63030"></rect>
        </g>
        <g transform="translate(117.000000, 220.000000)">
          <rect x="0" y="0" width="323" height="60"></rect>
          <text
            font-family="Lato"
            font-size="60"
            font-weight="600"
            line-spacing="60"
            letter-spacing="6"
            fill="#c63030"
            data-text-alignment="L"
            font-style="normal"
          >
            <tspan x="0" y="51.5">
              DY
            </tspan>
          </text>
        </g>
      </g>
    </svg>