<?xml version="1.0" standalone="no"?>
<!DOCTYPE svg PUBLIC "-//W3C//DTD SVG 20010904//EN"
 "http://www.w3.org/TR/2001/REC-SVG-20010904/DTD/svg10.dtd">
<svg version="1.0" xmlns="http://www.w3.org/2000/svg"
 width="700.000000pt" height="700.000000pt" viewBox="0 0 700.000000 700.000000"
 preserveAspectRatio="xMidYMid meet">
<metadata>
Created by potrace 1.11, written by Peter Selinger 2001-2013
</metadata>
<g transform="translate(0.000000,700.000000) scale(0.100000,-0.100000)"
fill="#000000" stroke="none">
<path d="M4878 6985 c-2 -2 -30 -6 -63 -9 -547 -59 -1315 -439 -2080 -1030
-71 -55 -132 -102 -135 -105 -3 -4 -41 -35 -85 -70 -44 -36 -87 -72 -96 -80
-9 -9 -29 -27 -45 -40 -275 -230 -751 -704 -1019 -1016 -822 -957 -1327 -1933
-1340 -2594 -6 -306 87 -515 285 -644 130 -85 268 -117 480 -112 80 2 161 6
180 9 310 56 586 149 910 309 435 214 904 527 1374 915 l109 91 441 -1 c243 0
461 3 486 7 114 19 139 25 210 47 249 80 467 270 566 494 55 126 61 145 85
269 15 80 18 132 14 255 -2 85 -8 173 -14 195 -5 22 -12 51 -14 65 -16 84 -89
247 -152 336 l-45 66 84 126 c77 117 213 337 229 372 4 8 17 31 29 50 40 66
196 385 241 495 85 207 166 470 182 597 2 18 9 62 14 98 11 82 12 261 1 320
-4 25 -10 59 -13 75 -28 170 -163 352 -317 426 -74 36 -145 60 -225 74 -37 7
-271 15 -277 10z m282 -407 c38 -12 87 -43 108 -68 78 -95 87 -303 25 -565
-23 -97 -78 -273 -103 -330 -5 -11 -28 -65 -51 -120 -60 -145 -196 -411 -278
-545 -5 -8 -33 -53 -62 -100 -39 -64 -158 -247 -173 -267 -1 -1 -30 9 -64 23
-69 28 -186 59 -259 70 -85 12 -953 12 -954 0 -1 -6 -2 -359 -3 -783 l-1 -773
-25 -22 c-14 -13 -63 -57 -110 -98 -47 -41 -87 -78 -90 -81 -25 -28 -391 -321
-494 -394 -246 -178 -404 -283 -606 -403 -164 -97 -459 -242 -623 -307 -361
-141 -692 -186 -849 -115 -61 27 -85 51 -113 112 -150 330 161 1156 744 1973
155 217 307 410 503 637 155 180 417 451 630 653 580 550 1233 1015 1794 1277
190 89 443 183 553 204 13 3 51 12 85 20 34 8 102 17 151 20 50 4 91 8 92 9 6
4 140 -17 173 -27z m-880 -2152 c19 -4 70 -19 112 -33 l77 -26 -31 -43 c-37
-51 -296 -376 -306 -384 -4 -3 -32 -34 -62 -70 -67 -80 -228 -257 -335 -368
l-80 -82 0 509 0 510 295 -4 c162 -1 311 -6 330 -9z m514 -449 c14 -37 23 -67
21 -67 -2 0 1 -15 6 -32 5 -18 12 -64 16 -103 46 -492 -163 -832 -558 -906
-75 -14 -585 -19 -612 -6 -16 7 11 38 175 201 212 211 308 311 413 430 39 44
78 88 87 98 45 46 291 349 356 436 53 72 49 74 96 -51z"/>
<path d="M5233 4591 c32 -53 63 -103 68 -111 5 -8 149 -247 321 -530 l312
-515 1 -407 c1 -224 4 -410 7 -414 9 -8 286 -9 295 0 4 3 7 190 7 414 l1 407
219 360 c120 198 228 376 239 395 10 19 27 46 37 60 25 37 260 428 260 433 0
3 -70 4 -155 3 -148 -2 -156 -3 -180 -26 -20 -19 -131 -203 -300 -498 -5 -10
-54 -94 -108 -188 -53 -93 -112 -205 -131 -247 l-33 -77 -50 103 c-27 56 -114
212 -193 347 -78 135 -154 265 -168 289 -14 25 -38 68 -55 95 -16 28 -41 71
-55 96 -56 102 -70 108 -252 107 l-146 -1 59 -95z"/>
<path d="M2 170 l3 -145 3498 0 3497 0 0 142 c0 79 -3 143 -7 144 -5 0 -1580
2 -3501 2 l-3493 2 3 -145z"/>
</g>
</svg>
